<?xml version="1.0" encoding="UTF-8" standalone="no"?>
<!-- Created with Inkscape (http://www.inkscape.org/) -->

<svg
   width="96"
   height="96"
   id="svg4874"
   version="1.1"
   inkscape:version="1.1.2 (0a00cf5339, 2022-02-04)"
   viewBox="0 0 96 96.000001"
   sodipodi:docname="bot.svg"
   xmlns:inkscape="http://www.inkscape.org/namespaces/inkscape"
   xmlns:sodipodi="http://sodipodi.sourceforge.net/DTD/sodipodi-0.dtd"
   xmlns="http://www.w3.org/2000/svg"
   xmlns:svg="http://www.w3.org/2000/svg"
   xmlns:rdf="http://www.w3.org/1999/02/22-rdf-syntax-ns#"
   xmlns:cc="http://creativecommons.org/ns#"
   xmlns:dc="http://purl.org/dc/elements/1.1/">
  <defs
     id="defs4876" />
  <sodipodi:namedview
     id="base"
     pagecolor="#ffffff"
     bordercolor="#666666"
     borderopacity="1.0"
     inkscape:pageopacity="0.0"
     inkscape:pageshadow="2"
     inkscape:zoom="4.9659845"
     inkscape:cx="28.292476"
     inkscape:cy="61.115777"
     inkscape:document-units="px"
     inkscape:current-layer="layer1"
     showgrid="false"
     showborder="true"
     fit-margin-top="0"
     fit-margin-left="0"
     fit-margin-right="0"
     fit-margin-bottom="0"
     inkscape:snap-bbox="true"
     inkscape:bbox-paths="true"
     inkscape:bbox-nodes="true"
     inkscape:snap-bbox-edge-midpoints="true"
     inkscape:snap-bbox-midpoints="true"
     inkscape:object-paths="true"
     inkscape:snap-intersection-paths="true"
     inkscape:object-nodes="true"
     inkscape:snap-smooth-nodes="true"
     inkscape:snap-midpoints="true"
     inkscape:snap-object-midpoints="true"
     inkscape:snap-center="true"
     showguides="false"
     inkscape:guide-bbox="true"
     inkscape:snap-global="false"
     inkscape:pagecheckerboard="0"
     inkscape:window-width="2486"
     inkscape:window-height="1363"
     inkscape:window-x="74"
     inkscape:window-y="34"
     inkscape:window-maximized="1">
    <inkscape:grid
       type="xygrid"
       id="grid5451"
       empspacing="8" />
    <sodipodi:guide
       orientation="1,0"
       position="8,-8.0000001"
       id="guide4063" />
    <sodipodi:guide
       orientation="1,0"
       position="4,-8.0000001"
       id="guide4065" />
    <sodipodi:guide
       orientation="0,1"
       position="-8,88.000001"
       id="guide4067" />
    <sodipodi:guide
       orientation="0,1"
       position="-8,92.000001"
       id="guide4069" />
    <sodipodi:guide
       orientation="0,1"
       position="104,4"
       id="guide4071" />
    <sodipodi:guide
       orientation="0,1"
       position="-5,8.0000001"
       id="guide4073" />
    <sodipodi:guide
       orientation="1,0"
       position="88,-8.0000001"
       id="guide4077" />
    <sodipodi:guide
       orientation="0,1"
       position="-8,84.000001"
       id="guide4074" />
    <sodipodi:guide
       orientation="1,0"
       position="12,-8.0000001"
       id="guide4076" />
    <sodipodi:guide
       orientation="1,0"
       position="84,-8.0000001"
       id="guide4080" />
    <sodipodi:guide
       position="48,-8.0000001"
       orientation="1,0"
       id="guide4170" />
    <sodipodi:guide
       position="-8,48"
       orientation="0,1"
       id="guide4172" />
    <sodipodi:guide
       position="92,-8.0000001"
       orientation="1,0"
       id="guide4760" />
    <sodipodi:guide
       position="112,12"
       orientation="0,1"
       id="guide4154" />
  </sodipodi:namedview>
  <metadata
     id="metadata4879">
    <rdf:RDF>
      <cc:Work
         rdf:about="">
        <dc:format>image/svg+xml</dc:format>
        <dc:type
           rdf:resource="http://purl.org/dc/dcmitype/StillImage" />
      </cc:Work>
    </rdf:RDF>
  </metadata>
  <g
     inkscape:label="Layer 1"
     inkscape:groupmode="layer"
     id="layer1"
     transform="translate(67.857146,-78.50504)">
    <path
       style="color:#000000;font-variation-settings:normal;vector-effect:none;fill:#808080;fill-opacity:1;stroke-width:1.28105;stroke-linecap:butt;stroke-linejoin:miter;stroke-miterlimit:4;stroke-dasharray:none;stroke-dashoffset:0;stroke-opacity:1;-inkscape-stroke:none;stop-color:#000000"
       d="m -15.991069,100.68046 c -1.688184,-0.0423 -3.296396,0.0141 -4.820331,0.0141 l -2.573703,0.002 v 0.0792 c -9.020806,0.29589 -19.95261,-0.20478 -27.886527,7.52509 l -0.07142,0.0494 -0.07142,0.0494 c -10.761836,11.65795 -9.595672,32.56308 4.145491,41.46892 l 0.107125,0.0707 0.114257,0.0566 c 10.089851,5.19893 21.22589,3.81212 30.892979,4.23608 l 0.09996,0.003 0.09996,-0.002 c 8.6323298,-0.29799 18.9485564,-0.12711 27.130981,-6.30448 l 0.09996,-0.0741 0.0928,-0.084 c 2.325902,-2.13935 4.164061,-4.67588 5.52303,-7.42579 5.685858,-11.50797 3.279975,-26.92498 -7.5425664,-34.79643 l -0.078579,-0.0564 -0.08564,-0.0494 c -8.0138795,-4.94802 -17.3360389,-4.16086 -25.0985646,-4.75551 l -0.07142,-0.003 z m -0.149966,5.0913 v 0 c 8.2431279,0.61931 16.38842098,0.19139 22.5527312,3.95518 8.3802428,6.17825 10.4819088,19.07882 5.8829508,28.38766 -1.081896,2.18823 -2.5258505,4.15883 -4.3061597,5.82217 -6.416408,4.78528 -15.305809,4.90553 -24.0288323,5.20565 -10.159836,-0.43075 -20.208259,0.58259 -28.466387,-3.6146 -10.512613,-6.93381 -11.522385,-24.44969 -3.107161,-33.63798 6.616356,-6.39424 16.878313,-5.51714 26.86462,-6.10064 1.608202,-0.002 3.140005,-0.0494 4.590384,-0.0141 z"
       id="path6-5-3-1-8" />
    <path
       id="path8-3-6-2-7"
       style="fill:#808080;fill-opacity:1;stroke-width:8.12069"
       d="m -56.580662,113.96462 c -3.034846,0.35731 -7.484596,0.58115 -8.233828,3.27416 -2.399306,6.28146 -3.782142,13.41125 0.32068,19.47954 0.757988,1.07675 1.614124,2.25878 3.510042,2.27348 1.914397,0.35519 3.874459,0.56704 5.836468,0.72754 -1.768628,-8.60882 -1.637425,-17.48895 1.18071,-25.97407 -0.874596,0.0727 -1.745297,0.14619 -2.618934,0.21891 z" />
    <path
       id="path10-5-7-7-9"
       style="fill:#808080;fill-opacity:1;stroke-width:7.84853"
       d="m 15.675926,114.77518 c 2.296548,8.09474 2.225747,16.5098 0.662644,24.68265 3.082639,-0.3905 7.054853,-0.4463 8.937486,-2.69475 2.925603,-7.08983 3.576445,-15.42967 -1.69473,-21.9838 -2.719552,-0.70332 -5.537142,-1.14793 -8.367442,-1.48188 0.154323,0.4929 0.308636,0.98517 0.46295,1.47773 z" />
    <path
       id="path12-6-5-0-2"
       style="fill:#808080;fill-opacity:1;stroke-width:4.52565"
       d="m -39.229363,120.49563 c -6.488521,0.6779 -6.137882,12.13071 0.50703,12.20295 5.702985,0.62001 9.246465,-8.21875 3.852691,-11.2594 -1.273985,-0.84398 -2.857918,-1.233 -4.359721,-0.94355 z" />
    <path
       id="path14-2-3-9-0"
       style="fill:#808080;fill-opacity:1;stroke-width:4.52565"
       d="m -1.3886772,120.49563 c -6.488521,0.6779 -6.137882,12.13071 0.5070301,12.20295 5.7037012,0.62001 9.2464754,-8.21875 3.8527014,-11.2594 -1.2739954,-0.84398 -2.85792813,-1.233 -4.3597315,-0.94355 z" />
    <path
       id="path16-9-5-3-2"
       style="fill:#808080;fill-opacity:1;stroke-width:6.24558"
       d="m -10.550874,134.95934 c -6.295,0.61577 -12.733539,0.0494 -19.079952,0.29234 1.085467,8.78495 14.695234,12.8039 18.783592,4.13286 0.585578,-0.92345 3.3306711,-5.37477 0.242797,-4.48121 z"
       sodipodi:nodetypes="ccccc" />
  </g>
</svg>
